<mxfile host="app.diagrams.net" modified="2023-11-18T14:43:02.256Z" agent="Mozilla/5.0 (Windows NT 10.0; Win64; x64) AppleWebKit/537.36 (KHTML, like Gecko) Chrome/119.0.0.0 Safari/537.36" version="22.1.3" etag="krEva7HpPrvIOLVIIdqF" type="github">
  <diagram name="Trang-1" id="nfisUPJ8k7kwCSu3uLWI">
    <mxGraphModel>
      <root>
        <mxCell id="0" />
        <mxCell id="1" parent="0" />
      </root>
    </mxGraphModel>
  </diagram>
</mxfile>
